<?xml version="1.0" encoding="utf-8"?>
<!-- Generator: Adobe Illustrator 27.1.1, SVG Export Plug-In . SVG Version: 6.00 Build 0)  -->
<svg version="1.1" id="Layer_1" xmlns="http://www.w3.org/2000/svg" xmlns:xlink="http://www.w3.org/1999/xlink" x="0px" y="0px"
	 viewBox="0 0 532 344" style="enable-background:new 0 0 532 344;" xml:space="preserve">
<path d="M190.1,25.5l-17.9,12.4l7.9,10.3c-1,1.4-2.1,3.1-2.8,4.5c-7.2,11.4-10.7,23.1-7.2,37.2l-48.3-64.5H190.1z"/>
<path d="M313.9,25.5l17.9,12.4L253.9,142c-6.9-6.6-16.9-16.5-26.2-27.6L216,98.9c-10.3-15.9-15.9-31-6.6-39.6
	c-2.8-0.7-5.5-1-8.3-1.7c0,0,14.5-0.7,22.1,7.6c7.6,7.9,27.2,52.4,46.9,37.6c0,0-14.5-2.1-18.3-21.4c-7.6-38.3-42.7-36.5-66.2-22.8
	c-1,0.7-2.1,1.7-2.8,2.4c-20.3,19.7,6.6,56.2,20,74.5l48.3,65.2l131-175.1H313.9z M300.4,27.6c0,0-6.6-9-21.4-4.1
	c-15.2,4.5-29,27.9-57.9,20c0,0-24.1-2.4-38.6,12.4c0,0,18.6-31,45.5-36.9c0,0-1,5.2-2.8,6.9c0,0,5.9-3.8,6.2-9.7
	c0.3-5.5,8.3-5.9,25.2-0.7l6.2,1l-11.4-4.5C276.3,11.4,283.9,8.6,296,0C296,0,307,9.3,300.4,27.6L300.4,27.6z M234.9,23.8l-5.5,4.1
	c9-4.1,18.3,2.4,29.6-4.8C251.8,22.4,235.3,11.7,234.9,23.8L234.9,23.8z"/>
</svg>
